<svg xmlns="http://www.w3.org/2000/svg" viewBox="0 0 400 225" width="400" height="225">
  <defs>
    <linearGradient id="bg1" x1="0%" y1="0%" x2="0%" y2="100%">
      <stop offset="0%" style="stop-color:#0f0f23"/>
      <stop offset="100%" style="stop-color:#1a1a2e"/>
    </linearGradient>
  </defs>
  <rect width="400" height="225" fill="url(#bg1)"/>
  <!-- Bricks -->
  <g transform="translate(100, 30)">
    <rect x="0" y="0" width="38" height="14" rx="2" fill="#e74c3c"/>
    <rect x="42" y="0" width="38" height="14" rx="2" fill="#e74c3c"/>
    <rect x="84" y="0" width="38" height="14" rx="2" fill="#e74c3c"/>
    <rect x="126" y="0" width="38" height="14" rx="2" fill="#e74c3c"/>
    <rect x="168" y="0" width="38" height="14" rx="2" fill="#e74c3c"/>
    <rect x="0" y="18" width="38" height="14" rx="2" fill="#e67e22"/>
    <rect x="42" y="18" width="38" height="14" rx="2" fill="#e67e22"/>
    <rect x="84" y="18" width="38" height="14" rx="2" fill="#e67e22"/>
    <rect x="126" y="18" width="38" height="14" rx="2" fill="#e67e22"/>
    <rect x="168" y="18" width="38" height="14" rx="2" fill="#e67e22"/>
    <rect x="0" y="36" width="38" height="14" rx="2" fill="#f1c40f"/>
    <rect x="42" y="36" width="38" height="14" rx="2" fill="#f1c40f"/>
    <rect x="84" y="36" width="38" height="14" rx="2" fill="#f1c40f"/>
    <rect x="126" y="36" width="38" height="14" rx="2" fill="#f1c40f"/>
    <rect x="168" y="36" width="38" height="14" rx="2" fill="#f1c40f"/>
    <rect x="0" y="54" width="38" height="14" rx="2" fill="#2ecc71"/>
    <rect x="42" y="54" width="38" height="14" rx="2" fill="#2ecc71"/>
    <rect x="84" y="54" width="38" height="14" rx="2" fill="#2ecc71"/>
    <rect x="126" y="54" width="38" height="14" rx="2" fill="#2ecc71"/>
    <rect x="168" y="54" width="38" height="14" rx="2" fill="#2ecc71"/>
  </g>
  <!-- Paddle -->
  <rect x="155" y="170" width="90" height="12" rx="6" fill="#ecf0f1"/>
  <!-- Ball -->
  <circle cx="200" cy="140" r="6" fill="#fff"/>
  <!-- Ball glow -->
  <circle cx="200" cy="140" r="6" fill="none" stroke="rgba(255,255,255,0.3)" stroke-width="4"/>
  <text x="200" y="210" text-anchor="middle" fill="#64748b" font-family="sans-serif" font-size="12">Breakout</text>
</svg>
