<svg xmlns="http://www.w3.org/2000/svg" viewBox="0 0 400 225" width="400" height="225">
  <defs>
    <linearGradient id="bg1" x1="0%" y1="0%" x2="0%" y2="100%">
      <stop offset="0%" style="stop-color:#050816"/>
      <stop offset="100%" style="stop-color:#0a0c2e"/>
    </linearGradient>
    <radialGradient id="g1" cx="30%" cy="40%"><stop offset="0%" stop-color="rgba(100,30,180,0.15)"/><stop offset="100%" stop-color="transparent"/></radialGradient>
  </defs>
  <rect width="400" height="225" fill="url(#bg1)"/>
  <rect width="400" height="225" fill="url(#g1)"/>
  <!-- Bubbles -->
  <circle cx="160" cy="55" r="18" fill="#ff6bc1" opacity="0.85"/>
  <circle cx="154" cy="48" r="6" fill="white" opacity="0.3"/>
  <circle cx="196" cy="55" r="18" fill="#4ac4ff" opacity="0.85"/>
  <circle cx="232" cy="55" r="18" fill="#50e87e" opacity="0.85"/>
  <circle cx="178" cy="86" r="18" fill="#ffd700" opacity="0.85"/>
  <circle cx="214" cy="86" r="18" fill="#7c5cfc" opacity="0.85"/>
  <circle cx="196" cy="117" r="18" fill="#ff6bc1" opacity="0.85"/>
  <circle cx="160" cy="117" r="18" fill="#ff8844" opacity="0.85"/>
  <circle cx="232" cy="117" r="18" fill="#4ac4ff" opacity="0.85"/>
  <!-- Shine highlights -->
  <ellipse cx="155" cy="49" rx="5" ry="3" fill="white" opacity="0.4" transform="rotate(-20 155 49)"/>
  <ellipse cx="191" cy="49" rx="5" ry="3" fill="white" opacity="0.4" transform="rotate(-20 191 49)"/>
  <ellipse cx="227" cy="49" rx="5" ry="3" fill="white" opacity="0.4" transform="rotate(-20 227 49)"/>
  <ellipse cx="173" cy="80" rx="5" ry="3" fill="white" opacity="0.4" transform="rotate(-20 173 80)"/>
  <ellipse cx="209" cy="80" rx="5" ry="3" fill="white" opacity="0.4" transform="rotate(-20 209 80)"/>
  <!-- Sparkles -->
  <circle cx="140" cy="70" r="1.5" fill="white" opacity="0.6"/>
  <circle cx="250" cy="90" r="1.5" fill="white" opacity="0.6"/>
  <circle cx="180" cy="140" r="1" fill="white" opacity="0.5"/>
  <text x="200" y="185" text-anchor="middle" fill="#c0c0d0" font-family="sans-serif" font-size="12">Bubble Pop!</text>
</svg>
