<svg xmlns="http://www.w3.org/2000/svg" viewBox="0 0 400 225" width="400" height="225">
  <defs>
    <linearGradient id="bg1" x1="0%" y1="0%" x2="0%" y2="100%">
      <stop offset="0%" style="stop-color:#87CEEB"/>
      <stop offset="40%" style="stop-color:#a8d8a0"/>
      <stop offset="100%" style="stop-color:#4a7c3f"/>
    </linearGradient>
  </defs>
  <rect width="400" height="225" fill="url(#bg1)"/>
  <!-- Path -->
  <path d="M0 120 L100 120 L100 60 L250 60 L250 160 L380 160 L400 160" stroke="#8B7355" stroke-width="20" fill="none" stroke-linecap="round" stroke-linejoin="round"/>
  <path d="M0 120 L100 120 L100 60 L250 60 L250 160 L380 160 L400 160" stroke="#A09070" stroke-width="16" fill="none" stroke-linecap="round" stroke-linejoin="round"/>
  <!-- Tower - Archer -->
  <rect x="55" y="70" width="20" height="22" rx="2" fill="#5D4037"/>
  <rect x="53" y="66" width="24" height="4" fill="#4E342E"/>
  <rect x="53" y="58" width="6" height="8" fill="#4E342E"/>
  <rect x="61" y="58" width="6" height="8" fill="#4E342E"/>
  <rect x="69" y="58" width="6" height="8" fill="#4E342E"/>
  <rect x="61" y="74" width="8" height="8" fill="#2E7D32"/>
  <!-- Tower - Mage -->
  <polygon points="195,28 181,70 209,70" fill="#3949AB"/>
  <rect x="185" y="70" width="20" height="10" fill="#5C6BC0"/>
  <circle cx="195" cy="42" r="6" fill="#B388FF" opacity="0.7"/>
  <circle cx="195" cy="42" r="3" fill="#E1BEE7"/>
  <!-- Tower - Cannon -->
  <rect x="290" y="115" width="24" height="12" fill="#5D4037"/>
  <rect x="288" y="112" width="28" height="4" fill="#3E2723"/>
  <rect x="302" y="117" width="18" height="6" rx="2" fill="#333"/>
  <circle cx="294" cy="128" r="4" fill="#4E342E"/>
  <circle cx="310" cy="128" r="4" fill="#4E342E"/>
  <!-- Enemies -->
  <rect x="140" y="52" width="8" height="10" rx="1" fill="#4CAF50"/>
  <rect x="139" y="47" width="6" height="5" fill="#FFCC80"/>
  <rect x="170" y="52" width="10" height="12" rx="1" fill="#5D4037"/>
  <rect x="169" y="47" width="7" height="5" fill="#FFCC80"/>
  <!-- Castle -->
  <rect x="370" y="140" width="24" height="22" rx="2" fill="#8D6E63"/>
  <rect x="368" y="136" width="28" height="6" fill="#6D4C41"/>
  <rect x="368" y="130" width="6" height="8" fill="#6D4C41"/>
  <rect x="378" y="130" width="6" height="8" fill="#6D4C41"/>
  <rect x="388" y="130" width="6" height="8" fill="#6D4C41"/>
  <!-- Trees -->
  <polygon points="30,100 22,120 38,120" fill="#2E7D32"/>
  <rect x="28" y="120" width="4" height="6" fill="#5D4037"/>
  <polygon points="340,90 332,110 348,110" fill="#2E7D32"/>
  <rect x="338" y="110" width="4" height="6" fill="#5D4037"/>
  <!-- Gold coin -->
  <circle cx="200" cy="200" r="8" fill="#FFD700" stroke="#DAA520" stroke-width="1"/>
  <text x="200" y="203" text-anchor="middle" fill="#8B6914" font-family="sans-serif" font-size="9" font-weight="bold">$</text>
  <text x="200" y="220" text-anchor="middle" fill="#c8a060" font-family="sans-serif" font-size="12">Kingdom Rush</text>
</svg>
