<svg xmlns="http://www.w3.org/2000/svg" viewBox="0 0 400 225" width="400" height="225">
  <defs>
    <linearGradient id="sky" x1="0%" y1="0%" x2="0%" y2="100%">
      <stop offset="0%" style="stop-color:#87CEEB"/>
      <stop offset="100%" style="stop-color:#a8d8a0"/>
    </linearGradient>
  </defs>
  <rect width="400" height="225" fill="url(#sky)"/>
  <!-- Ground -->
  <rect x="0" y="140" width="400" height="85" fill="#3d8b3d"/>
  <rect x="0" y="148" width="400" height="77" fill="#8B5E3C"/>
  <rect x="0" y="180" width="400" height="45" fill="#808080"/>
  <!-- Grass blades -->
  <rect x="20" y="136" width="1" height="4" fill="#66BB6A"/>
  <rect x="35" y="137" width="1" height="3" fill="#66BB6A"/>
  <rect x="55" y="135" width="1" height="5" fill="#66BB6A"/>
  <rect x="80" y="137" width="1" height="3" fill="#66BB6A"/>
  <rect x="120" y="136" width="1" height="4" fill="#66BB6A"/>
  <rect x="200" y="135" width="1" height="5" fill="#66BB6A"/>
  <rect x="280" y="137" width="1" height="3" fill="#66BB6A"/>
  <rect x="340" y="136" width="1" height="4" fill="#66BB6A"/>
  <!-- Tree -->
  <rect x="100" y="80" width="8" height="60" fill="#6B4226"/>
  <ellipse cx="104" cy="70" rx="25" ry="22" fill="#2E7D32"/>
  <ellipse cx="104" cy="62" rx="18" ry="16" fill="#388E3C"/>
  <!-- Tree 2 -->
  <rect x="300" y="90" width="8" height="50" fill="#6B4226"/>
  <ellipse cx="304" cy="82" rx="22" ry="18" fill="#2E7D32"/>
  <ellipse cx="304" cy="75" rx="15" ry="14" fill="#388E3C"/>
  <!-- Ores underground -->
  <rect x="60" y="190" width="6" height="6" rx="1" fill="#DAA520"/>
  <rect x="150" y="195" width="5" height="5" rx="1" fill="#A0522D"/>
  <rect x="250" y="200" width="6" height="6" rx="1" fill="#00BCD4"/>
  <rect x="330" y="188" width="5" height="5" rx="1" fill="#E67E22"/>
  <!-- Cave -->
  <rect x="170" y="155" width="30" height="25" rx="4" fill="#1a1a1a"/>
  <!-- Flowers -->
  <circle cx="40" cy="136" r="3" fill="#E91E63"/>
  <circle cx="40" cy="136" r="1.5" fill="#FFEB3B"/>
  <circle cx="230" cy="136" r="3" fill="#9C27B0"/>
  <circle cx="230" cy="136" r="1.5" fill="#FFEB3B"/>
  <circle cx="360" cy="136" r="3" fill="#FF5722"/>
  <circle cx="360" cy="136" r="1.5" fill="#FFEB3B"/>
  <!-- Player -->
  <rect x="185" y="118" width="10" height="20" rx="1" fill="#1E88E5"/>
  <rect x="186" y="111" width="8" height="8" rx="1" fill="#FFCC80"/>
  <rect x="186" y="109" width="8" height="3" fill="#5D4037"/>
  <!-- Sun -->
  <circle cx="50" cy="30" r="15" fill="rgba(255,240,180,0.9)"/>
  <circle cx="50" cy="30" r="25" fill="none" stroke="rgba(255,230,150,0.2)" stroke-width="2"/>
  <text x="200" y="218" text-anchor="middle" fill="#64748b" font-family="sans-serif" font-size="12">Minecraft</text>
</svg>
