<svg xmlns="http://www.w3.org/2000/svg" viewBox="0 0 400 225" width="400" height="225">
  <defs>
    <linearGradient id="bg1" x1="0%" y1="0%" x2="0%" y2="100%">
      <stop offset="0%" style="stop-color:#08081a"/>
      <stop offset="100%" style="stop-color:#0e0e24"/>
    </linearGradient>
  </defs>
  <rect width="400" height="225" fill="url(#bg1)"/>
  <!-- T piece (purple) -->
  <rect x="160" y="40" width="24" height="24" rx="3" fill="#c040ff" opacity="0.9"/>
  <rect x="136" y="64" width="24" height="24" rx="3" fill="#c040ff" opacity="0.9"/>
  <rect x="160" y="64" width="24" height="24" rx="3" fill="#c040ff" opacity="0.9"/>
  <rect x="184" y="64" width="24" height="24" rx="3" fill="#c040ff" opacity="0.9"/>
  <!-- I piece (cyan) -->
  <rect x="232" y="40" width="24" height="24" rx="3" fill="#00f0f0" opacity="0.9"/>
  <rect x="232" y="64" width="24" height="24" rx="3" fill="#00f0f0" opacity="0.9"/>
  <rect x="232" y="88" width="24" height="24" rx="3" fill="#00f0f0" opacity="0.9"/>
  <rect x="232" y="112" width="24" height="24" rx="3" fill="#00f0f0" opacity="0.9"/>
  <!-- S piece (green) -->
  <rect x="136" y="112" width="24" height="24" rx="3" fill="#00f000" opacity="0.9"/>
  <rect x="160" y="112" width="24" height="24" rx="3" fill="#00f000" opacity="0.9"/>
  <rect x="112" y="136" width="24" height="24" rx="3" fill="#00f000" opacity="0.9"/>
  <rect x="136" y="136" width="24" height="24" rx="3" fill="#00f000" opacity="0.9"/>
  <!-- O piece (yellow) -->
  <rect x="184" y="112" width="24" height="24" rx="3" fill="#f0f000" opacity="0.9"/>
  <rect x="208" y="112" width="24" height="24" rx="3" fill="#f0f000" opacity="0.9"/>
  <rect x="184" y="136" width="24" height="24" rx="3" fill="#f0f000" opacity="0.9"/>
  <rect x="208" y="136" width="24" height="24" rx="3" fill="#f0f000" opacity="0.9"/>
  <!-- Shine highlights -->
  <rect x="161" y="41" width="22" height="7" rx="2" fill="white" opacity="0.2"/>
  <rect x="233" y="41" width="22" height="7" rx="2" fill="white" opacity="0.2"/>
  <rect x="137" y="113" width="22" height="7" rx="2" fill="white" opacity="0.2"/>
  <rect x="185" y="113" width="22" height="7" rx="2" fill="white" opacity="0.2"/>
  <!-- Glow -->
  <circle cx="200" cy="95" r="70" fill="none" stroke="rgba(100,100,255,0.08)" stroke-width="1"/>
  <text x="200" y="190" text-anchor="middle" fill="#88a" font-family="sans-serif" font-size="12">Tetris</text>
</svg>
